<?xml version="1.0" standalone="no"?><svg xmlns="http://www.w3.org/2000/svg" viewBox="0 0 1440 320"><path fill="#0099ff" fill-opacity="1" d="M0,64L20,74.7C40,85,80,107,120,106.7C160,107,200,85,240,64C280,43,320,21,360,32C400,43,440,85,480,117.3C520,149,560,171,600,149.3C640,128,680,64,720,37.3C760,11,800,21,840,21.3C880,21,920,11,960,10.7C1000,11,1040,21,1080,58.7C1120,96,1160,160,1200,181.3C1240,203,1280,181,1320,197.3C1360,213,1400,267,1420,293.3L1440,320L1440,0L1420,0C1400,0,1360,0,1320,0C1280,0,1240,0,1200,0C1160,0,1120,0,1080,0C1040,0,1000,0,960,0C920,0,880,0,840,0C800,0,760,0,720,0C680,0,640,0,600,0C560,0,520,0,480,0C440,0,400,0,360,0C320,0,280,0,240,0C200,0,160,0,120,0C80,0,40,0,20,0L0,0Z"></path></svg>